<svg height="496pt" viewBox="0 0 496 496" width="496pt" xmlns="http://www.w3.org/2000/svg"><path d="m171.015625 341.304688c7.929687-7.3125 12.984375-17.695313 12.984375-29.304688v-16c0-22.054688-17.945312-40-40-40s-40 17.945312-40 40v16c0 11.609375 5.054688 21.992188 12.984375 29.304688-26.34375 10.710937-44.984375 36.550781-44.984375 66.695312v16c0 4.425781 3.574219 8 8 8h128c4.425781 0 8-3.574219 8-8v-16c0-30.144531-18.640625-55.984375-44.984375-66.695312zm-51.015625-29.304688v-16c0-13.230469 10.769531-24 24-24s24 10.769531 24 24v16c0 13.230469-10.769531 24-24 24s-24-10.769531-24-24zm80 104h-16v-16h-16v16h-48v-16h-16v16h-16v-8c0-30.871094 25.128906-56 56-56s56 25.128906 56 56zm0 0"/><path d="m379.015625 133.304688c7.929687-7.3125 12.984375-17.695313 12.984375-29.304688v-16c0-22.054688-17.945312-40-40-40s-40 17.945312-40 40v16c0 11.609375 5.054688 21.992188 12.984375 29.304688-26.34375 10.710937-44.984375 36.550781-44.984375 66.695312v16c0 4.414062 3.574219 8 8 8h128c4.425781 0 8-3.585938 8-8v-16c0-30.144531-18.640625-55.984375-44.984375-66.695312zm-51.015625-29.304688v-16c0-13.230469 10.769531-24 24-24s24 10.769531 24 24v16c0 13.230469-10.769531 24-24 24s-24-10.769531-24-24zm80 104h-16v-16h-16v16h-48v-16h-16v16h-16v-8c0-30.878906 25.128906-56 56-56s56 25.121094 56 56zm0 0"/><path d="m488 112h-12.128906c-3.09375-11.984375-7.925782-23.414062-14.429688-34.136719l8.207032-8.207031c1.511718-1.496094 2.351562-3.535156 2.351562-5.65625s-.839844-4.160156-2.34375-5.65625l-32-32c-3.128906-3.128906-8.183594-3.128906-11.3125 0l-8.167969 8.167969c-10.71875-6.519531-22.167969-11.367188-34.175781-14.464844v-12.046875c0-4.414062-3.574219-8-8-8h-48c-4.425781 0-8 3.585938-8 8v12.039062c-12.078125 3.105469-23.535156 7.9375-34.222656 14.417969l-8.121094-8.113281c-3.128906-3.128906-8.183594-3.128906-11.3125 0l-32 32c-3.128906 3.128906-3.128906 8.183594 0 11.3125l8.121094 8.121094c-6.433594 10.621094-11.234375 22.085937-14.34375 34.222656h-12.121094c-4.425781 0-8 3.585938-8 8v48c0 4.414062 3.574219 8 8 8h12.128906c3.09375 11.984375 7.925782 23.414062 14.429688 34.136719l-32.382813 32.375c-10.71875-6.519531-22.167969-11.367188-34.167969-14.472657v-12.039062c0-4.414062-3.574218-8-8-8h-48c-4.421874 0-8 3.585938-8 8v12.039062c-5.199218 1.335938-10.253906 3.058594-15.214843 5.023438 3.902343-40.550781 23.597656-77.277344 55.472656-103.09375 4.214844 3.703125 9.6875 6.03125 15.734375 6.03125 13.230469 0 24-10.769531 24-24s-10.769531-24-24-24-24 10.769531-24 24c0 1.3125.183594 2.574219.382812 3.832031-39.0625 30.601563-62.191406 75.734375-64.175781 125.265625-.808593.460938-1.640625.871094-2.4375 1.359375l-8.121093-8.113281c-3.128907-3.128906-8.183594-3.128906-11.3125 0l-32 32c-3.128907 3.128906-3.128907 8.183594 0 11.3125l8.121093 8.121094c-6.425781 10.613281-11.234375 22.078125-14.335937 34.222656h-12.121094c-4.425781 0-8 3.574219-8 8v48c0 4.425781 3.574219 8 8 8h12.128906c3.09375 11.984375 7.925782 23.425781 14.429688 34.136719l-8.207032 8.207031c-3.128906 3.128906-3.128906 8.183594 0 11.3125l32 32c3.128907 3.128906 8.183594 3.128906 11.3125 0l8.167969-8.167969c10.71875 6.519531 22.167969 11.375 34.167969 14.472657v12.039062c0 4.425781 3.574219 8 8 8h48c4.425781 0 8-3.574219 8-8v-12.039062c12.089844-3.113282 23.542969-7.9375 34.222656-14.425782l8.121094 8.121094c3.128906 3.128906 8.183594 3.128906 11.3125 0l32-32c3.128906-3.128906 3.128906-8.183594 0-11.3125l-8.121094-8.121094c6.433594-10.613281 11.234375-22.085937 14.34375-34.222656h12.121094c4.425781 0 8-3.574219 8-8v-48c0-4.425781-3.574219-8-8-8h-12.128906c-3.09375-11.984375-7.925782-23.425781-14.429688-34.136719l32.382813-32.382812c10.71875 6.519531 22.167969 11.375 34.167969 14.472656v12.046875c0 4.425781 3.574218 8 8 8h48c4.421874 0 8-3.574219 8-8v-12.039062c5.199218-1.335938 10.253906-3.058594 15.214843-5.03125-3.902343 40.550781-23.597656 77.277343-55.472656 103.09375-4.214844-3.695313-9.6875-6.023438-15.734375-6.023438-13.230469 0-24 10.769531-24 24s10.769531 24 24 24 24-10.769531 24-24c0-1.3125-.183594-2.574219-.382812-3.832031 39.0625-30.601563 62.191406-75.734375 64.175781-125.265625.808593-.460938 1.640625-.871094 2.4375-1.359375l8.121093 8.113281c3.128907 3.128906 8.183594 3.128906 11.3125 0l32-32c3.128907-3.128906 3.128907-8.183594 0-11.3125l-8.121093-8.121094c6.433593-10.621094 11.234375-22.085937 14.34375-34.222656h12.113281c4.425781 0 8-3.585938 8-8v-48c0-4.414062-3.574219-8-8-8zm-320-8c4.414062 0 8 3.59375 8 8s-3.585938 8-8 8-8-3.59375-8-8 3.585938-8 8-8zm160 288c-4.414062 0-8-3.585938-8-8s3.585938-8 8-8 8 3.585938 8 8-3.585938 8-8 8zm152-232h-10.488281c-3.808594 0-7.078125 2.679688-7.832031 6.40625-2.984376 14.640625-8.6875 28.242188-16.96875 40.425781-2.160157 3.175781-1.757813 7.441407.960937 10.152344l7.015625 7.015625-20.6875 20.6875-7.015625-7.015625c-2.71875-2.710937-6.976563-3.113281-10.152344-.960937-12.304687 8.351562-25.902343 14.089843-40.433593 17.042968-3.71875.757813-6.398438 4.039063-6.398438 7.839844v10.40625h-32v-10.40625c0-3.808594-2.679688-7.082031-6.40625-7.839844-14.410156-2.929687-27.984375-8.683594-40.363281-17.105468-3.167969-2.152344-7.429688-1.761719-10.160157.960937l-41.503906 41.503906c-2.710937 2.710938-3.117187 6.964844-.964844 10.152344 8.398438 12.375 14.132813 25.949219 17.0625 40.335937.761719 3.71875 4.039063 6.398438 7.839844 6.398438h10.496094v32h-10.488281c-3.808594 0-7.078125 2.679688-7.832031 6.40625-2.984376 14.640625-8.6875 28.242188-16.96875 40.433594-2.160157 3.167968-1.757813 7.441406.960937 10.152344l7.015625 7.007812-20.6875 20.6875-7.015625-7.015625c-2.71875-2.71875-6.984375-3.121094-10.160156-.960937-12.289063 8.351562-25.886719 14.089843-40.425781 17.050781-3.71875.75-6.398438 4.03125-6.398438 7.832031v10.40625h-32v-10.40625c0-3.808594-2.679688-7.082031-6.40625-7.832031-14.410156-2.9375-27.984375-8.691407-40.363281-17.113281-3.167969-2.160157-7.4375-1.761719-10.160157.960937l-7.070312 7.078125-20.6875-20.6875 7.113281-7.113281c2.710938-2.710938 3.117188-6.964844.964844-10.152344-8.398437-12.375-14.132813-25.949219-17.0625-40.335937-.753906-3.71875-4.03125-6.398438-7.832031-6.398438h-10.496094v-32h10.488281c3.808594 0 7.078125-2.679688 7.832031-6.40625 2.984376-14.640625 8.6875-28.242188 16.96875-40.433594 2.160157-3.167968 1.757813-7.441406-.960937-10.152344l-7.015625-7.007812 20.6875-20.6875 7.015625 7.015625c2.71875 2.71875 6.976563 3.121094 10.152344.960937 12.304687-8.351562 25.902343-14.089843 40.433593-17.042968 3.71875-.75 6.398438-4.03125 6.398438-7.839844v-10.40625h32v10.40625c0 3.808594 2.679688 7.082031 6.40625 7.839844 14.410156 2.929687 27.984375 8.683594 40.363281 17.105468 3.167969 2.167969 7.445313 1.769532 10.160157-.960937l41.503906-41.496094c2.710937-2.710937 3.117187-6.964843.964844-10.140625-8.398438-12.386718-14.140626-25.960937-17.054688-40.347656-.769531-3.726562-4.046875-6.40625-7.847656-6.40625h-10.496094v-32h10.488281c3.808594 0 7.078125-2.679688 7.832031-6.40625 2.984376-14.640625 8.6875-28.242188 16.96875-40.425781 2.160157-3.175781 1.757813-7.441407-.960937-10.152344l-7.015625-7.015625 20.6875-20.6875 7.015625 7.015625c2.726563 2.71875 6.984375 3.121094 10.152344.960937 12.304687-8.351562 25.902343-14.089843 40.433593-17.042968 3.71875-.75 6.398438-4.03125 6.398438-7.839844v-10.40625h32v10.40625c0 3.808594 2.679688 7.082031 6.40625 7.839844 14.410156 2.929687 27.984375 8.683594 40.363281 17.097656 3.175781 2.167969 7.445313 1.769531 10.160157-.960938l7.070312-7.070312 20.6875 20.6875-7.113281 7.105469c-2.710938 2.710937-3.117188 6.964843-.964844 10.140625 8.398437 12.386718 14.144531 25.960937 17.054687 40.347656.761719 3.726562 4.039063 6.40625 7.839844 6.40625h10.496094zm0 0"/></svg>