<svg xmlns="http://www.w3.org/2000/svg" viewBox="0 0 290.701 334">
  <defs>
    <style>
      .cls-1 {
        fill: #486ef3;
      }
    </style>
  </defs>
  <g id="_001-hashtag" data-name="001-hashtag" transform="translate(-31.762)">
    <path id="Tracé_1" data-name="Tracé 1" class="cls-1" d="M274.221,180.984H182.608L161.05,268.9h91.328ZM174.362,258.46,190.8,191.421h70.066L244.224,258.46Z" transform="translate(-41.161 -57.619)"/>
    <path id="Tracé_2" data-name="Tracé 2" class="cls-1" d="M51.362,334H100.6l22.332-90.92H192.8L170.731,334h49.221l22.332-90.92h80.177V200.84H252.57L269.225,133.8h53.238V91.562H279.49L301.821,0h-49.5L229.992,91.562H159.886L182.219,0H132.967L110.645,91.562H31.762V133.8h68.629L83.95,200.84H31.762V243.08H73.7ZM42.2,232.642V211.277H92.144L113.7,123.364H42.2V102h76.64l22.322-91.562h27.766L146.595,102h91.593L260.52,10.437h28.01L266.2,102h45.827v21.364H261.071l-21.854,87.914h72.808v21.364H234.111l-22.332,90.92H184l22.068-90.92H114.762L92.43,323.562H64.675l22.332-90.92H42.2Z" transform="translate(0)"/>
  </g>
</svg>
