<svg height="496pt" viewBox="0 0 496 496" width="496pt" xmlns="http://www.w3.org/2000/svg"><path d="m248 0c-45.625 0-89.984375 12.414062-128.710938 35.976562l-17.632812-17.632812c-2.289062-2.289062-5.71875-2.96875-8.71875-1.734375-2.984375 1.238281-4.9375 4.160156-4.9375 7.390625v80c0 4.414062 3.574219 8 8 8h80c3.230469 0 6.160156-1.953125 7.390625-4.9375 1.242187-2.992188.554687-6.429688-1.734375-8.71875l-9.304688-9.304688c23.496094-11.175781 49.441407-17.039062 75.648438-17.039062 97.046875 0 176 78.953125 176 176 0 42.136719-15.128906 82.894531-42.574219 114.785156l12.125 10.4375c29.953125-34.789062 46.449219-79.261718 46.449219-125.222656 0-105.871094-86.136719-192-192-192-32.519531 0-64.65625 8.28125-92.929688 23.953125-2.199218 1.214844-3.695312 3.390625-4.046874 5.878906-.351563 2.488281.496093 5 2.265624 6.769531l3.390626 3.398438h-52.679688v-52.679688l8.480469 8.480469c2.671875 2.671875 6.832031 3.109375 9.992187 1.0625 37.398438-24.121093 80.808594-36.863281 125.527344-36.863281 127.921875 0 232 104.070312 232 232 0 58.96875-22.144531 115.167969-62.351562 158.257812l11.703124 10.910157c42.976563-46.054688 66.648438-106.136719 66.648438-169.167969 0-136.742188-111.246094-248-248-248zm0 0"/><path d="m400 384h-80c-3.230469 0-6.160156 1.953125-7.390625 4.9375-1.242187 2.992188-.554687 6.429688 1.734375 8.71875l9.304688 9.304688c-23.496094 11.175781-49.441407 17.039062-75.648438 17.039062-97.046875 0-176-78.953125-176-176 0-42.136719 15.121094-82.894531 42.574219-114.785156l-12.125-10.4375c-29.953125 34.78125-46.449219 79.253906-46.449219 125.222656 0 105.863281 86.136719 192 192 192 32.519531 0 64.65625-8.28125 92.929688-23.953125 2.199218-1.214844 3.695312-3.390625 4.046874-5.878906.351563-2.488281-.496093-5-2.265624-6.769531l-3.390626-3.398438h52.679688v52.679688l-8.480469-8.480469c-2.671875-2.671875-6.832031-3.109375-9.992187-1.0625-37.398438 24.121093-80.808594 36.863281-125.527344 36.863281-127.921875 0-232-104.070312-232-232 0-58.976562 22.152344-115.183594 62.375-158.28125l-11.703125-10.910156c-42.992187 46.0625-66.671875 106.152344-66.671875 169.191406 0 136.742188 111.246094 248 248 248 45.625 0 89.984375-12.414062 128.710938-35.976562l17.632812 17.632812c2.296875 2.296875 5.734375 2.984375 8.71875 1.734375 2.984375-1.238281 4.9375-4.160156 4.9375-7.390625v-80c0-4.414062-3.574219-8-8-8zm0 0"/><path d="m120 216c-4.425781 0-8 3.585938-8 8v48c0 4.414062 3.574219 8 8 8h12.382812c2.746094 9.910156 6.753907 19.40625 11.96875 28.335938l-6.007812 6.007812c-3.128906 3.128906-3.128906 8.183594 0 11.3125l32 32c3.128906 3.128906 8.183594 3.128906 11.3125 0l6.007812-6.007812c8.9375 5.222656 18.425782 9.230468 28.335938 11.976562v12.375c0 4.414062 3.574219 8 8 8h48c4.425781 0 8-3.585938 8-8v-12.375c9.953125-2.746094 19.449219-6.746094 28.359375-11.953125l5.984375 5.984375c3.128906 3.128906 8.183594 3.128906 11.3125 0l32-32c3.128906-3.128906 3.128906-8.183594 0-11.3125l-5.984375-5.984375c5.199219-8.910156 9.199219-18.40625 11.945313-28.359375h12.382812c4.425781 0 8-3.585938 8-8v-48c0-4.414062-3.574219-8-8-8h-12.382812c-2.746094-9.910156-6.753907-19.40625-11.96875-28.335938l6.007812-6.007812c3.128906-3.128906 3.128906-8.183594 0-11.3125l-32-32c-3.128906-3.128906-8.183594-3.128906-11.3125 0l-6.007812 6.007812c-8.9375-5.222656-18.425782-9.230468-28.335938-11.976562v-12.375c0-4.414062-3.574219-8-8-8h-48c-4.425781 0-8 3.585938-8 8v12.375c-9.953125 2.746094-19.449219 6.746094-28.359375 11.953125l-5.984375-5.984375c-3.128906-3.128906-8.183594-3.128906-11.3125 0l-32 32c-3.128906 3.128906-3.128906 8.183594 0 11.3125l5.984375 5.984375c-5.199219 8.910156-9.199219 18.40625-11.945313 28.359375zm26.457031 9.710938c2.734375-12.472657 7.671875-24.191407 14.695313-34.839844 2.09375-3.167969 1.664062-7.375-1.023438-10.054688l-4.816406-4.816406 20.6875-20.6875 4.816406 4.816406c2.6875 2.6875 6.878906 3.117188 10.0625 1.023438 10.648438-7.015625 22.367188-11.96875 34.832032-14.6875 3.671874-.808594 6.289062-4.066406 6.289062-7.824219v-10.640625h32v10.640625c0 3.757813 2.617188 7.007813 6.289062 7.816406 12.398438 2.703125 24.109376 7.664063 34.824219 14.710938 3.160157 2.078125 7.359375 1.664062 10.054688-1.023438l4.832031-4.832031 20.6875 20.6875-4.832031 4.832031c-2.6875 2.679688-3.113281 6.886719-1.023438 10.054688 7.046875 10.699219 12 22.417969 14.71875 34.816406.800781 3.679687 4.050781 6.296875 7.808594 6.296875h10.640625v32h-10.640625c-3.757813 0-7.007813 2.617188-7.816406 6.289062-2.734375 12.472657-7.671875 24.191407-14.695313 34.839844-2.09375 3.167969-1.664062 7.375 1.023438 10.054688l4.816406 4.816406-20.6875 20.6875-4.816406-4.816406c-2.6875-2.6875-6.871094-3.109375-10.0625-1.023438-10.648438 7.015625-22.367188 11.96875-34.832032 14.6875-3.671874.808594-6.289062 4.066406-6.289062 7.824219v10.640625h-32v-10.640625c0-3.757813-2.617188-7.007813-6.289062-7.816406-12.398438-2.703125-24.109376-7.664063-34.824219-14.710938-3.167969-2.089843-7.367188-1.671875-10.054688 1.023438l-4.832031 4.832031-20.6875-20.6875 4.832031-4.832031c2.6875-2.679688 3.113281-6.886719 1.023438-10.054688-7.046875-10.699219-12-22.417969-14.71875-34.816406-.800781-3.679687-4.050781-6.296875-7.808594-6.296875h-10.640625v-32h10.640625c3.757813 0 7.007813-2.617188 7.816406-6.289062zm0 0"/><path d="m248 336c48.519531 0 88-39.480469 88-88s-39.480469-88-88-88-88 39.480469-88 88 39.480469 88 88 88zm0-160c39.703125 0 72 32.304688 72 72s-32.296875 72-72 72-72-32.304688-72-72 32.296875-72 72-72zm0 0"/><path d="m248 256h40v-16h-32v-48h-16v56c0 4.414062 3.574219 8 8 8zm0 0"/></svg>