<svg height="496pt" viewBox="0 0 496 496" width="496pt" xmlns="http://www.w3.org/2000/svg"><path d="m216 448h64v16h-64zm0 0"/><path d="m416 256h-8v-16h8c44.113281 0 80-35.886719 80-80s-35.886719-80-80-80h-8v-40c0-22.054688-17.945312-40-40-40h-240c-22.054688 0-40 17.945312-40 40v40h-8c-44.113281 0-80 35.886719-80 80s35.886719 80 80 80h8v16h-8c-44.113281 0-80 35.886719-80 80s35.886719 80 80 80h8v40c0 22.054688 17.945312 40 40 40h240c22.054688 0 40-17.945312 40-40v-40h8c44.113281 0 80-35.886719 80-80s-35.886719-80-80-80zm64-96c0 35.289062-28.710938 64-64 64h-144v-64c0-35.289062 28.710938-64 64-64h80c35.289062 0 64 28.710938 64 64zm-352-144h240c13.230469 0 24 10.769531 24 24v8h-288v-8c0-13.230469 10.769531-24 24-24zm-112 144c0-35.289062 28.710938-64 64-64h80c35.289062 0 64 28.710938 64 64v64h-144c-35.289062 0-64-28.710938-64-64zm0 176c0-35.289062 28.710938-64 64-64h144v64c0 35.289062-28.710938 64-64 64h-80c-35.289062 0-64-28.710938-64-64zm376 120c0 13.230469-10.769531 24-24 24h-240c-13.230469 0-24-10.769531-24-24v-40h56c44.113281 0 80-35.886719 80-80v-72c0-4.425781-3.585938-8-8-8h-128v-16h128c4.414062 0 8-3.585938 8-8v-72c0-44.113281-35.886719-80-80-80h-56v-16h288v16h-56c-44.113281 0-80 35.886719-80 80v72c0 4.414062 3.585938 8 8 8h128v16h-128c-4.414062 0-8 3.574219-8 8v72c0 44.113281 35.886719 80 80 80h56zm24-56h-80c-35.289062 0-64-28.710938-64-64v-64h144c35.289062 0 64 28.710938 64 64s-28.710938 64-64 64zm0 0"/><path d="m152 304h-52.902344l-3.503906-10.527344c-1.097656-3.273437-4.144531-5.472656-7.59375-5.472656h-16v16h10.230469l14.175781 42.527344c1.097656 3.273437 4.144531 5.472656 7.59375 5.472656h40c3.671875 0 6.871094-2.496094 7.761719-6.0625l8-32c.597656-2.394531.054687-4.921875-1.457031-6.859375-1.511719-1.941406-3.839844-3.078125-6.304688-3.078125zm-14.246094 32h-27.992187l-5.335938-16h37.316407zm0 0"/><path d="m100 360c-6.617188 0-12 5.382812-12 12s5.382812 12 12 12 12-5.382812 12-12-5.382812-12-12-12zm0 16c-2.207031 0-4-1.800781-4-4s1.792969-4 4-4 4 1.800781 4 4-1.792969 4-4 4zm0 0"/><path d="m140 360c-6.617188 0-12 5.382812-12 12s5.382812 12 12 12 12-5.382812 12-12-5.382812-12-12-12zm0 16c-2.207031 0-4-1.800781-4-4s1.792969-4 4-4 4 1.800781 4 4-1.792969 4-4 4zm0 0"/><path d="m360 312v8h-16v16h16v48h16v-48h16v-16h-16v-8c0-4.414062 3.59375-8 8-8h8v-16h-8c-13.230469 0-24 10.769531-24 24zm0 0"/><path d="m360 184c0 13.230469 10.769531 24 24 24s24-10.769531 24-24v-8h-16v8c0 4.40625-3.59375 8-8 8s-8-3.59375-8-8v-40h16v-16h-16v-16h-16v16h-16v16h16zm0 0"/><path d="m160 112h-80c-4.414062 0-8 3.585938-8 8v80c0 4.414062 3.585938 8 8 8h80c4.414062 0 8-3.585938 8-8v-80c0-4.414062-3.585938-8-8-8zm-8 80h-64v-64h64zm0 0"/><path d="m120 184c13.230469 0 24-10.769531 24-24s-10.769531-24-24-24-24 10.769531-24 24 10.769531 24 24 24zm0-32c4.40625 0 8 3.59375 8 8s-3.59375 8-8 8-8-3.59375-8-8 3.59375-8 8-8zm0 0"/></svg>