<svg id="_005-smartphone-3" data-name="005-smartphone-3" xmlns="http://www.w3.org/2000/svg" viewBox="0 0 512 512">
  <defs>
    <style>
      .cls-1 {
        fill: #4a4a4a;
      }
    </style>
  </defs>
  <path id="Tracé_1" data-name="Tracé 1" class="cls-1" d="M344,480H168a56.073,56.073,0,0,1-56-56,8,8,0,0,1,16,0,40.047,40.047,0,0,0,40,40H344a40.047,40.047,0,0,0,40-40,8,8,0,1,1,16,0,56.073,56.073,0,0,1-56,56Zm0,0"/>
  <path id="Tracé_2" data-name="Tracé 2" class="cls-1" d="M232.238,40a8,8,0,1,1-.086-16h.086a8,8,0,0,1,0,16Zm0,0"/>
  <path id="Tracé_3" data-name="Tracé 3" class="cls-1" d="M280,40H256a8,8,0,0,1,0-16h24a8,8,0,0,1,0,16Zm0,0"/>
  <path id="Tracé_4" data-name="Tracé 4" class="cls-1" d="M392,56.016a7.99,7.99,0,0,1-8-8,32.032,32.032,0,0,0-32-32,8,8,0,0,1,0-16,48.047,48.047,0,0,1,48,48,7.99,7.99,0,0,1-8,8Zm0,0"/>
  <path id="Tracé_5" data-name="Tracé 5" class="cls-1" d="M120,56a7.99,7.99,0,0,1-8-8A48.047,48.047,0,0,1,160,0a8,8,0,0,1,0,16,32.032,32.032,0,0,0-32,32,7.99,7.99,0,0,1-8,8Zm0,0"/>
  <path id="Tracé_6" data-name="Tracé 6" class="cls-1" d="M352,16H160a8,8,0,0,1,0-16H352a8,8,0,0,1,0,16Zm0,0"/>
  <path id="Tracé_7" data-name="Tracé 7" class="cls-1" d="M392,64.016H120a8,8,0,0,1,0-16H392a8,8,0,0,1,0,16Zm0,0"/>
  <path id="Tracé_8" data-name="Tracé 8" class="cls-1" d="M344,512H168a56.073,56.073,0,0,1-56-56,8,8,0,0,1,16,0,40.047,40.047,0,0,0,40,40H344a40.047,40.047,0,0,0,40-40,8,8,0,0,1,16,0A56.073,56.073,0,0,1,344,512Zm0,0"/>
  <path id="Tracé_9" data-name="Tracé 9" class="cls-1" d="M392,416H120a8,8,0,0,1,0-16H392a8,8,0,0,1,0,16Zm0,0"/>
  <path id="Tracé_10" data-name="Tracé 10" class="cls-1" d="M256,464a24,24,0,1,1,24-24,24,24,0,0,1-24,24Zm0-32a8,8,0,1,0,8,8,8,8,0,0,0-8-8Zm0,0"/>
  <path id="Tracé_11" data-name="Tracé 11" class="cls-1" d="M344,328H168a7.99,7.99,0,0,1-8-8V144a7.99,7.99,0,0,1,8-8H344a7.99,7.99,0,0,1,8,8V320a7.99,7.99,0,0,1-8,8ZM176,312H336V152H176Zm0,0"/>
  <path id="Tracé_12" data-name="Tracé 12" class="cls-1" d="M344,104H168a7.99,7.99,0,0,1-8-8V56a8,8,0,0,1,16,0V88H336V56a8,8,0,0,1,16,0V96a7.99,7.99,0,0,1-8,8Zm0,0"/>
  <path id="Tracé_13" data-name="Tracé 13" class="cls-1" d="M344,416a7.99,7.99,0,0,1-8-8V376H176v32a8,8,0,0,1-16,0V368a7.99,7.99,0,0,1,8-8H344a7.99,7.99,0,0,1,8,8v40a7.99,7.99,0,0,1-8,8Zm0,0"/>
  <path id="Tracé_14" data-name="Tracé 14" class="cls-1" d="M239.727,328a8,8,0,0,1-6.391-12.793l48-64a8,8,0,0,1,12.793,9.594l-48,64A7.97,7.97,0,0,1,239.727,328Zm0,0"/>
  <path id="Tracé_15" data-name="Tracé 15" class="cls-1" d="M335.742,328a7.988,7.988,0,0,1-6.406-3.2l-48-64a8,8,0,0,1,12.793-9.594l48,64a7.985,7.985,0,0,1-1.6,11.191,7.9,7.9,0,0,1-4.787,1.6Zm0,0"/>
  <path id="Tracé_16" data-name="Tracé 16" class="cls-1" d="M191.727,328a8,8,0,0,1-6.238-13l32-40a8,8,0,1,1,12.5,10l-32,40A8.015,8.015,0,0,1,191.727,328Zm0,0"/>
  <path id="Tracé_17" data-name="Tracé 17" class="cls-1" d="M247.48,317.672a8.015,8.015,0,0,1-6.258-3L217.488,285a8,8,0,0,1,12.5-10l23.734,29.672a8,8,0,0,1-6.238,13Zm0,0"/>
  <path id="Tracé_18" data-name="Tracé 18" class="cls-1" d="M228,232a20,20,0,1,1,20-20,20,20,0,0,1-20,20Zm0-24a4,4,0,1,0,4,4,4,4,0,0,0-4-4Zm0,0"/>
  <path id="Tracé_19" data-name="Tracé 19" class="cls-1" d="M72,240a7.978,7.978,0,0,1-5.656-2.344L43.855,215.168a22.94,22.94,0,0,1,0-32.441,23.492,23.492,0,0,1,28.137-3.406,23.521,23.521,0,0,1,28.168,3.434,22.935,22.935,0,0,1-.031,32.422l-22.48,22.48A7.933,7.933,0,0,1,72,240ZM60.09,192a6.846,6.846,0,0,0-4.9,2.031,6.936,6.936,0,0,0-.023,9.816L72,220.68l16.871-16.863a6.927,6.927,0,0,0-.047-9.754,7.08,7.08,0,0,0-9.832-.016L77.625,195.4a8,8,0,0,1-11.25,0l-1.328-1.32A6.952,6.952,0,0,0,60.09,192Zm0,0"/>
  <path id="Tracé_20" data-name="Tracé 20" class="cls-1" d="M136,280H8a7.99,7.99,0,0,1-8-8V144a7.99,7.99,0,0,1,8-8H136a7.99,7.99,0,0,1,8,8V190.1l7.16,14.309a7.992,7.992,0,0,1,0,7.16l-7.16,14.3V272a7.99,7.99,0,0,1-8,8ZM16,264H128V223.992a8.054,8.054,0,0,1,.84-3.578l6.207-12.422-6.207-12.426a8.025,8.025,0,0,1-.84-3.574V152H16Zm0,0"/>
  <path id="Tracé_21" data-name="Tracé 21" class="cls-1" d="M120,152a7.99,7.99,0,0,1-8-8V48.016a8,8,0,0,1,16,0V144a7.99,7.99,0,0,1-8,8Zm0,0"/>
  <path id="Tracé_22" data-name="Tracé 22" class="cls-1" d="M120,464a7.99,7.99,0,0,1-8-8V272a8,8,0,0,1,16,0V456a7.99,7.99,0,0,1-8,8Zm0,0"/>
  <path id="Tracé_23" data-name="Tracé 23" class="cls-1" d="M440,288a7.964,7.964,0,0,1-5.656-2.344L411.9,263.215a22.94,22.94,0,0,1-.047-32.488,23.5,23.5,0,0,1,28.137-3.406,23.52,23.52,0,0,1,28.168,3.434,22.935,22.935,0,0,1-.031,32.422l-22.48,22.48A7.933,7.933,0,0,1,440,288Zm-11.91-48a6.846,6.846,0,0,0-4.9,2.031,6.936,6.936,0,0,0-.023,9.816L440,268.68l16.832-16.824a6.927,6.927,0,0,0,0-9.8A7.077,7.077,0,0,0,447,242.04l-1.367,1.352a8,8,0,0,1-11.25,0l-1.328-1.312A6.983,6.983,0,0,0,428.09,240Zm0,0"/>
  <path id="Tracé_24" data-name="Tracé 24" class="cls-1" d="M504,328H376a7.99,7.99,0,0,1-8-8V273.879l-7.16-14.312a7.992,7.992,0,0,1,0-7.16l7.16-14.3V192a7.99,7.99,0,0,1,8-8H504a7.99,7.99,0,0,1,8,8V320a7.99,7.99,0,0,1-8,8ZM384,312H496V200H384v39.992a8.025,8.025,0,0,1-.84,3.574l-6.207,12.426,6.207,12.422a8.054,8.054,0,0,1,.84,3.578Zm0,0"/>
  <path id="Tracé_25" data-name="Tracé 25" class="cls-1" d="M392,200a7.99,7.99,0,0,1-8-8V48.016a8,8,0,0,1,16,0V192a7.99,7.99,0,0,1-8,8Zm0,0"/>
  <path id="Tracé_26" data-name="Tracé 26" class="cls-1" d="M392,464a7.99,7.99,0,0,1-8-8V320a8,8,0,0,1,16,0V456a7.99,7.99,0,0,1-8,8Zm0,0"/>
</svg>
