<svg height="496pt" viewBox="-64 0 496 496" width="496pt" xmlns="http://www.w3.org/2000/svg"><path d="m120 256h128c4.425781 0 8-3.585938 8-8v-40c0-27.976562-18.078125-51.761719-43.144531-60.441406 6.863281-7.183594 11.144531-16.863282 11.144531-27.558594v-16c0-22.054688-17.945312-40-40-40s-40 17.945312-40 40v16c0 10.695312 4.28125 20.375 11.144531 27.558594-25.066406 8.679687-43.144531 32.464844-43.144531 60.441406v40c0 4.414062 3.574219 8 8 8zm40-152c0-13.230469 10.769531-24 24-24s24 10.769531 24 24v16c0 13.230469-10.769531 24-24 24s-24-10.769531-24-24zm-32 104c0-26.472656 21.527344-48 48-48h16c26.472656 0 48 21.527344 48 48v32h-16v-32h-16v32h-48v-32h-16v32h-16zm0 0"/><path d="m208 320h128v16h-128zm0 0"/><path d="m208 352h128v16h-128zm0 0"/><path d="m32 320h128v16h-128zm0 0"/><path d="m32 352h128v16h-128zm0 0"/><path d="m360 416c4.425781 0 8-3.574219 8-8v-400c0-4.414062-3.574219-8-8-8h-312c-26.472656 0-48 21.527344-48 48v400c0 26.472656 21.527344 48 48 48h320v-16h-16v-64zm-344-368c0-17.648438 14.351562-32 32-32h304v384h-304c-12.28125 0-23.503906 4.640625-32 12.246094zm320 432h-288c-17.648438 0-32-14.351562-32-32s14.351562-32 32-32h288zm0 0"/><path d="m184 304c74.992188 0 136-61.007812 136-136s-61.007812-136-136-136-136 61.007812-136 136 61.007812 136 136 136zm0-256c66.167969 0 120 53.832031 120 120s-53.832031 120-120 120-120-53.832031-120-120 53.832031-120 120-120zm0 0"/></svg>