<svg height="496pt" viewBox="0 0 496 496" width="496pt" xmlns="http://www.w3.org/2000/svg"><path d="m488 216h-75.6875c-9.449219-29.976562-36.097656-52.382812-68.3125-55.59375v-40.40625c0-4.40625 3.585938-8 8-8 13.230469 0 24-10.769531 24-24v-24h8c22.054688 0 40-17.945312 40-40 0-4.414062-3.574219-8-8-8h-16c-12.191406 0-22.992188 5.601562-30.335938 14.230469-9.34375-17.933594-28.078124-30.230469-49.664062-30.230469h-32c-4.425781 0-8 3.585938-8 8 0 30.878906 25.128906 56 56 56h24v24c0 4.40625-3.585938 8-8 8-13.230469 0-24 10.769531-24 24v40.40625c-32.703125 3.265625-59.632812 26.320312-68.695312 56.976562l-54.617188 54.617188h-84.6875v-8c0-4.40625 3.585938-8 8-8 13.230469 0 24-10.769531 24-24v-24h8c22.054688 0 40-17.945312 40-40 0-4.414062-3.574219-8-8-8h-16c-12.191406 0-22.992188 5.601562-30.335938 14.230469-9.34375-17.933594-28.078124-30.230469-49.664062-30.230469h-32c-4.425781 0-8 3.585938-8 8 0 30.878906 25.128906 56 56 56h24v24c0 4.40625-3.585938 8-8 8-13.230469 0-24 10.769531-24 24v8h-96c-4.425781 0-8 3.585938-8 8v208c0 4.414062 3.574219 8 8 8h480c4.425781 0 8-3.585938 8-8v-264c0-4.414062-3.574219-8-8-8zm-152-168c-19.320312 0-35.480469-13.769531-39.191406-32h23.191406c19.320312 0 35.480469 13.769531 39.191406 32zm64-16h6.632812c-3.304687 9.3125-12.199218 16-22.632812 16h-6.632812c3.304687-9.3125 12.199218-16 22.632812-16zm-288 160c-19.320312 0-35.480469-13.769531-39.191406-32h23.191406c19.320312 0 35.480469 13.769531 39.191406 32zm64-16h6.632812c-3.304687 9.3125-12.199218 16-22.632812 16h-6.632812c3.304687-9.3125 12.199218-16 22.632812-16zm160 0c35.289062 0 64 28.710938 64 64s-28.710938 64-64 64-64-28.710938-64-64 28.710938-64 64-64zm144 304h-464v-192h88v16.40625c-40.367188 4.027344-72 38.179688-72 79.59375 0 44.113281 35.886719 80 80 80 41.40625 0 75.566406-31.632812 79.59375-72h.40625c8.824219 0 16 7.175781 16 16 0 17.648438 14.351562 32 32 32v-16c-8.824219 0-16-7.175781-16-16 0-17.648438-14.351562-32-32-32h-.40625c-3.769531-37.734375-33.859375-67.832031-71.59375-71.59375v-16.40625h88c2.128906 0 4.160156-.839844 5.65625-2.34375l42.503906-42.503906c1.671875 42.648437 36.792969 76.847656 79.839844 76.847656 35.753906 0 66.089844-23.574219 76.3125-56h3.6875c8.824219 0 16 7.175781 16 16 0 17.648438 14.351562 32 32 32v-16c-8.824219 0-16-7.175781-16-16 0-17.648438-14.351562-32-32-32h-.40625c.261719-2.632812.40625-5.296875.40625-8s-.144531-5.367188-.40625-8h64.40625zm-368-160c35.289062 0 64 28.710938 64 64s-28.710938 64-64 64-64-28.710938-64-64 28.710938-64 64-64zm0 0"/><path d="m104 440h16v-17.472656c9.289062-3.3125 16-12.113282 16-22.527344 0-13.230469-10.769531-24-24-24-4.414062 0-8-3.59375-8-8s3.585938-8 8-8h24v-16h-16v-16h-16v17.472656c-9.289062 3.3125-16 12.113282-16 22.527344 0 13.230469 10.769531 24 24 24 4.414062 0 8 3.59375 8 8s-3.585938 8-8 8h-24v16h16zm0 0"/><path d="m328 296h16v-17.472656c9.289062-3.3125 16-12.113282 16-22.527344 0-13.230469-10.769531-24-24-24-4.414062 0-8-3.59375-8-8s3.585938-8 8-8h24v-16h-16v-16h-16v17.472656c-9.289062 3.3125-16 12.113282-16 22.527344 0 13.230469 10.769531 24 24 24 4.414062 0 8 3.59375 8 8s-3.585938 8-8 8h-24v16h16zm0 0"/><path d="m408 416c-13.230469 0-24 10.769531-24 24s10.769531 24 24 24 24-10.769531 24-24-10.769531-24-24-24zm0 32c-4.414062 0-8-3.59375-8-8s3.585938-8 8-8 8 3.59375 8 8-3.585938 8-8 8zm0 0"/><path d="m432 336c-17.648438 0-32 14.351562-32 32s14.351562 32 32 32 32-14.351562 32-32-14.351562-32-32-32zm0 48c-8.824219 0-16-7.175781-16-16s7.175781-16 16-16 16 7.175781 16 16-7.175781 16-16 16zm0 0"/><path d="m256 312c-17.648438 0-32 14.351562-32 32s14.351562 32 32 32 32-14.351562 32-32-14.351562-32-32-32zm0 48c-8.824219 0-16-7.175781-16-16s7.175781-16 16-16 16 7.175781 16 16-7.175781 16-16 16zm0 0"/><path d="m312 376c-13.230469 0-24 10.769531-24 24s10.769531 24 24 24 24-10.769531 24-24-10.769531-24-24-24zm0 32c-4.414062 0-8-3.59375-8-8s3.585938-8 8-8 8 3.59375 8 8-3.585938 8-8 8zm0 0"/></svg>