<svg id="_006-money-growth" data-name="006-money-growth" xmlns="http://www.w3.org/2000/svg" viewBox="0 0 496 496">
  <defs>
    <style>
      .cls-1 {
        fill: #4a4a4a;
      }
    </style>
  </defs>
  <path id="Tracé_27" data-name="Tracé 27" class="cls-1" d="M488,216H412.313A80.19,80.19,0,0,0,344,160.406V120a8.01,8.01,0,0,1,8-8,24.031,24.031,0,0,0,24-24V64h8a40.047,40.047,0,0,0,40-40,8,8,0,0,0-8-8H400a39.757,39.757,0,0,0-30.336,14.23A56.021,56.021,0,0,0,320,0H288a8,8,0,0,0-8,8,56.068,56.068,0,0,0,56,56h24V88a8.01,8.01,0,0,1-8,8,24.031,24.031,0,0,0-24,24v40.406a80.178,80.178,0,0,0-68.7,56.977L204.688,272H120v-8a8.01,8.01,0,0,1,8-8,24.031,24.031,0,0,0,24-24V208h8a40.047,40.047,0,0,0,40-40,8,8,0,0,0-8-8H176a39.757,39.757,0,0,0-30.336,14.23A56.021,56.021,0,0,0,96,144H64a8,8,0,0,0-8,8,56.068,56.068,0,0,0,56,56h24v24a8.01,8.01,0,0,1-8,8,24.031,24.031,0,0,0-24,24v8H8a8,8,0,0,0-8,8V488a8,8,0,0,0,8,8H488a8,8,0,0,0,8-8V224A8,8,0,0,0,488,216ZM336,48a40.062,40.062,0,0,1-39.191-32H320a40.062,40.062,0,0,1,39.191,32Zm64-16h6.633A24.046,24.046,0,0,1,384,48h-6.633A24.046,24.046,0,0,1,400,32ZM112,192a40.062,40.062,0,0,1-39.191-32H96a40.062,40.062,0,0,1,39.191,32Zm64-16h6.633A24.046,24.046,0,0,1,160,192h-6.633A24.046,24.046,0,0,1,176,176Zm160,0a64,64,0,1,1-64,64A64,64,0,0,1,336,176ZM480,480H16V288h88v16.406A80,80,0,1,0,191.594,392H192a16.016,16.016,0,0,1,16,16,32.032,32.032,0,0,0,32,32V424a16.016,16.016,0,0,1-16-16,32.032,32.032,0,0,0-32-32h-.406A80.139,80.139,0,0,0,120,304.406V288h88a7.964,7.964,0,0,0,5.656-2.344l42.5-42.5A79.941,79.941,0,0,0,412.313,264H416a16.016,16.016,0,0,1,16,16,32.032,32.032,0,0,0,32,32V296a16.016,16.016,0,0,1-16-16,32.032,32.032,0,0,0-32-32h-.406c.262-2.633.406-5.3.406-8s-.145-5.367-.406-8H480ZM112,320a64,64,0,1,1-64,64,64,64,0,0,1,64-64Zm0,0"/>
  <path id="Tracé_30" data-name="Tracé 30" class="cls-1" d="M408,416a24,24,0,1,0,24,24,24,24,0,0,0-24-24Zm0,32a8,8,0,1,1,8-8,8,8,0,0,1-8,8Zm0,0"/>
  <path id="Tracé_31" data-name="Tracé 31" class="cls-1" d="M432,336a32,32,0,1,0,32,32A32,32,0,0,0,432,336Zm0,48a16,16,0,1,1,16-16,16,16,0,0,1-16,16Zm0,0"/>
  <path id="Tracé_32" data-name="Tracé 32" class="cls-1" d="M256,312a32,32,0,1,0,32,32A32,32,0,0,0,256,312Zm0,48a16,16,0,1,1,16-16A16,16,0,0,1,256,360Zm0,0"/>
  <path id="Tracé_33" data-name="Tracé 33" class="cls-1" d="M312,376a24,24,0,1,0,24,24A24,24,0,0,0,312,376Zm0,32a8,8,0,1,1,8-8,8,8,0,0,1-8,8Zm0,0"/>
</svg>
