<svg id="_007-chat" data-name="007-chat" xmlns="http://www.w3.org/2000/svg" viewBox="0 0 512 344">
  <defs>
    <style>
      .cls-1 {
        fill: #4a4a4a;
      }
    </style>
  </defs>
  <path id="Tracé_1" data-name="Tracé 1" class="cls-1" d="M48,344a8,8,0,0,1-8-8V312H24A24.031,24.031,0,0,1,0,288V24A24.031,24.031,0,0,1,24,0H384a24.031,24.031,0,0,1,24,24V288a24.031,24.031,0,0,1-24,24H113.887L51.574,343.16A8.043,8.043,0,0,1,48,344ZM24,16a8.01,8.01,0,0,0-8,8V288a8.005,8.005,0,0,0,8,8H48a7.99,7.99,0,0,1,8,8v19.055l52.426-26.207A7.929,7.929,0,0,1,112,296H384a8,8,0,0,0,8-8V24a8.01,8.01,0,0,0-8-8Zm0,0"/>
  <path id="Tracé_2" data-name="Tracé 2" class="cls-1" d="M480,36a8,8,0,0,1-8-8,12,12,0,1,0-24,0,8,8,0,0,1-16,0,28,28,0,1,1,56,0A8,8,0,0,1,480,36Zm0,0"/>
  <path id="Tracé_3" data-name="Tracé 3" class="cls-1" d="M440,280a7.99,7.99,0,0,1-8-8V28a8,8,0,1,1,16,0V272a7.99,7.99,0,0,1-8,8Zm0,0"/>
  <path id="Tracé_4" data-name="Tracé 4" class="cls-1" d="M480,280a7.99,7.99,0,0,1-8-8V28a8,8,0,1,1,16,0V272a7.99,7.99,0,0,1-8,8Zm0,0"/>
  <path id="Tracé_5" data-name="Tracé 5" class="cls-1" d="M480,280H440a8,8,0,0,1,0-16h40a8,8,0,0,1,0,16Zm0,0"/>
  <path id="Tracé_6" data-name="Tracé 6" class="cls-1" d="M480,256H440a8,8,0,0,1,0-16h40a8,8,0,0,1,0,16Zm0,0"/>
  <path id="Tracé_7" data-name="Tracé 7" class="cls-1" d="M472,296a7.99,7.99,0,0,1-8-8V272a8,8,0,0,1,16,0v16a7.99,7.99,0,0,1-8,8Zm0,0"/>
  <path id="Tracé_8" data-name="Tracé 8" class="cls-1" d="M448,296a7.99,7.99,0,0,1-8-8V272a8,8,0,0,1,16,0v16a7.99,7.99,0,0,1-8,8Zm0,0"/>
  <path id="Tracé_9" data-name="Tracé 9" class="cls-1" d="M480.008,312a8,8,0,0,1-7.168-4.426l-8-16a8,8,0,0,1,14.313-7.16l8,16A8.008,8.008,0,0,1,480.008,312Zm0,0"/>
  <path id="Tracé_10" data-name="Tracé 10" class="cls-1" d="M459.992,344a8,8,0,0,1-6.77-12.238l20-32a8,8,0,1,1,13.564,8.485l-20,32A8,8,0,0,1,459.992,344Zm0,0"/>
  <path id="Tracé_11" data-name="Tracé 11" class="cls-1" d="M460.008,344a7.991,7.991,0,0,1-6.793-3.762l-20-32a8,8,0,1,1,13.564-8.485l20,32a8,8,0,0,1-2.539,11.023A7.884,7.884,0,0,1,460.008,344Zm0,0"/>
  <path id="Tracé_12" data-name="Tracé 12" class="cls-1" d="M439.992,312a7.992,7.992,0,0,1-7.145-11.574l8-16a8,8,0,0,1,14.313,7.16l-8,16A8.013,8.013,0,0,1,439.992,312Zm0,0"/>
  <path id="Tracé_13" data-name="Tracé 13" class="cls-1" d="M504,168a8,8,0,0,1-8-8V48a8,8,0,0,1,16,0V160A8,8,0,0,1,504,168Zm0,0"/>
  <path id="Tracé_14" data-name="Tracé 14" class="cls-1" d="M504,56a8,8,0,0,1-8-8v-.008A8,8,0,1,1,496,32a16.016,16.016,0,0,1,16,16A8,8,0,0,1,504,56Zm0,0"/>
  <path id="Tracé_15" data-name="Tracé 15" class="cls-1" d="M480,152H440a8,8,0,0,1,0-16h40a8,8,0,0,1,0,16Zm0,0"/>
  <path id="Tracé_16" data-name="Tracé 16" class="cls-1" d="M496,48H440a8,8,0,0,1,0-16h56a8,8,0,0,1,0,16Zm0,0"/>
  <path id="Tracé_17" data-name="Tracé 17" class="cls-1" d="M168,64H56a8,8,0,0,1,0-16H168a8,8,0,0,1,0,16Zm0,0"/>
  <path id="Tracé_18" data-name="Tracé 18" class="cls-1" d="M240,64H200a8,8,0,0,1,0-16h40a8,8,0,0,1,0,16Zm0,0"/>
  <path id="Tracé_19" data-name="Tracé 19" class="cls-1" d="M112,104H56a8,8,0,0,1,0-16h56a8,8,0,0,1,0,16Zm0,0"/>
  <path id="Tracé_20" data-name="Tracé 20" class="cls-1" d="M352,104H144a8,8,0,0,1,0-16H352a8,8,0,0,1,0,16Zm0,0"/>
  <path id="Tracé_21" data-name="Tracé 21" class="cls-1" d="M192,184H56a8,8,0,0,1,0-16H192a8,8,0,0,1,0,16Zm0,0"/>
  <path id="Tracé_22" data-name="Tracé 22" class="cls-1" d="M352,184H224a8,8,0,0,1,0-16H352a8,8,0,0,1,0,16Zm0,0"/>
  <path id="Tracé_23" data-name="Tracé 23" class="cls-1" d="M312,264H56a8,8,0,0,1,0-16H312a8,8,0,0,1,0,16Zm0,0"/>
  <path id="Tracé_24" data-name="Tracé 24" class="cls-1" d="M352,264h-8a8,8,0,0,1,0-16h8a8,8,0,0,1,0,16Zm0,0"/>
  <path id="Tracé_25" data-name="Tracé 25" class="cls-1" d="M352,64H272a8,8,0,0,1,0-16h80a8,8,0,0,1,0,16Zm0,0"/>
  <path id="Tracé_26" data-name="Tracé 26" class="cls-1" d="M88,144H56a8,8,0,0,1,0-16H88a8,8,0,0,1,0,16Zm0,0"/>
  <path id="Tracé_27" data-name="Tracé 27" class="cls-1" d="M304,144H120a8,8,0,0,1,0-16H304a8,8,0,0,1,0,16Zm0,0"/>
  <path id="Tracé_28" data-name="Tracé 28" class="cls-1" d="M352,144H336a8,8,0,0,1,0-16h16a8,8,0,0,1,0,16Zm0,0"/>
  <path id="Tracé_29" data-name="Tracé 29" class="cls-1" d="M112,224H56a8,8,0,0,1,0-16h56a8,8,0,0,1,0,16Zm0,0"/>
  <path id="Tracé_30" data-name="Tracé 30" class="cls-1" d="M272,224H144a8,8,0,0,1,0-16H272a8,8,0,0,1,0,16Zm0,0"/>
  <path id="Tracé_31" data-name="Tracé 31" class="cls-1" d="M352,224H304a8,8,0,0,1,0-16h48a8,8,0,0,1,0,16Zm0,0"/>
</svg>
