<svg xmlns="http://www.w3.org/2000/svg" viewBox="0 0 448.011 512">
  <defs>
    <style>
      .cls-1 {
        fill: #4a4a4a;
      }
    </style>
  </defs>
  <g id="_016-newsletter" data-name="016-newsletter" transform="translate(-0.5)">
    <path id="Tracé_1" data-name="Tracé 1" class="cls-1" d="M440.5,512H8.5a7.993,7.993,0,0,1-8-8V248a8,8,0,1,1,16,0V496h416V248a8,8,0,0,1,16,0V504a7.99,7.99,0,0,1-8,8Zm0,0"/>
    <path id="Tracé_2" data-name="Tracé 2" class="cls-1" d="M224.5,400a8.036,8.036,0,0,1-4.43-1.344l-216-144a8,8,0,0,1,8.879-13.312l216,144A8,8,0,0,1,224.5,400Zm0,0"/>
    <path id="Tracé_3" data-name="Tracé 3" class="cls-1" d="M224.512,400a8,8,0,0,1-4.445-14.656l216-144a8,8,0,1,1,8.879,13.313l-216,144A8.049,8.049,0,0,1,224.512,400Zm0,0"/>
    <path id="Tracé_4" data-name="Tracé 4" class="cls-1" d="M440.5,512a8.036,8.036,0,0,1-4.43-1.344L244.055,382.648a8,8,0,0,1,8.883-13.312L444.945,497.344A8,8,0,0,1,440.5,512Zm0,0"/>
    <path id="Tracé_5" data-name="Tracé 5" class="cls-1" d="M8.512,512a8,8,0,0,1-4.445-14.656l192-128a8,8,0,1,1,8.879,13.313l-192,128A8.048,8.048,0,0,1,8.512,512Zm0,0"/>
    <path id="Tracé_6" data-name="Tracé 6" class="cls-1" d="M440.5,256a8.036,8.036,0,0,1-4.43-1.344l-64-42.664a8,8,0,1,1,8.879-13.312l64,42.664A8,8,0,0,1,440.5,256Zm0,0"/>
    <path id="Tracé_7" data-name="Tracé 7" class="cls-1" d="M8.512,256a8,8,0,0,1-4.445-14.656l64-42.664a8,8,0,0,1,8.879,13.313l-64,42.664A8.049,8.049,0,0,1,8.512,256Zm0,0"/>
    <path id="Tracé_8" data-name="Tracé 8" class="cls-1" d="M72.5,298.664a7.993,7.993,0,0,1-8-8V8a8,8,0,1,1,16,0V290.664a7.99,7.99,0,0,1-8,8Zm0,0"/>
    <path id="Tracé_9" data-name="Tracé 9" class="cls-1" d="M376.5,298.664a7.993,7.993,0,0,1-8-8V8a8,8,0,1,1,16,0V290.664a7.99,7.99,0,0,1-8,8Zm0,0"/>
    <path id="Tracé_10" data-name="Tracé 10" class="cls-1" d="M376.5,16H72.5a8,8,0,0,1,0-16h304a8,8,0,0,1,0,16Zm0,0"/>
    <path id="Tracé_11" data-name="Tracé 11" class="cls-1" d="M208.5,216a8,8,0,0,1-6.391-12.793l48-64A8,8,0,0,1,262.9,148.8l-48,64a7.959,7.959,0,0,1-6.4,3.2Zm0,0"/>
    <path id="Tracé_12" data-name="Tracé 12" class="cls-1" d="M304.512,216a7.988,7.988,0,0,1-6.406-3.2l-48-64a8,8,0,0,1,12.793-9.594l48,64a7.988,7.988,0,0,1-1.6,11.191,7.908,7.908,0,0,1-4.787,1.6Zm0,0"/>
    <path id="Tracé_13" data-name="Tracé 13" class="cls-1" d="M160.5,216a8,8,0,0,1-6.238-13l32-40a8,8,0,1,1,12.5,10l-32,40A8.015,8.015,0,0,1,160.5,216Zm0,0"/>
    <path id="Tracé_14" data-name="Tracé 14" class="cls-1" d="M216.25,205.672a8.015,8.015,0,0,1-6.258-3L186.258,173a8,8,0,0,1,12.5-10l23.734,29.672a8,8,0,0,1-6.238,13Zm0,0"/>
    <path id="Tracé_15" data-name="Tracé 15" class="cls-1" d="M320.5,216h-192a7.993,7.993,0,0,1-8-8V64a7.993,7.993,0,0,1,8-8h192a7.99,7.99,0,0,1,8,8V208a7.99,7.99,0,0,1-8,8Zm-184-16h176V72h-176Zm0,0"/>
    <path id="Tracé_16" data-name="Tracé 16" class="cls-1" d="M320.5,256h-192a8,8,0,0,1,0-16h192a8,8,0,0,1,0,16Zm0,0"/>
    <path id="Tracé_17" data-name="Tracé 17" class="cls-1" d="M320.5,288h-192a8,8,0,0,1,0-16h192a8,8,0,0,1,0,16Zm0,0"/>
    <path id="Tracé_18" data-name="Tracé 18" class="cls-1" d="M280.5,320h-112a8,8,0,0,1,0-16h112a8,8,0,0,1,0,16Zm0,0"/>
    <path id="Tracé_19" data-name="Tracé 19" class="cls-1" d="M172.5,128a20,20,0,1,1,20-20,20,20,0,0,1-20,20Zm0-24a4,4,0,1,0,4,4A4,4,0,0,0,172.5,104Zm0,0"/>
  </g>
</svg>
