<svg xmlns="http://www.w3.org/2000/svg" xmlns:xlink="http://www.w3.org/1999/xlink" viewBox="4278.63 279.292 221.684 259.208">
  <defs>
    <style>
      .cls-1 {
        fill: #fff;
      }

      .cls-2 {
        fill: #e6eaf0;
      }

      .cls-3 {
        fill: #b1c0ff;
      }

      .cls-4 {
        fill: #aeebb1;
      }

      .cls-5 {
        fill: #ccc;
      }

      .cls-6 {
        filter: url(#Ellipse_1);
      }

      .cls-7 {
        filter: url(#Rectangle_26);
      }
    </style>
    <filter id="Rectangle_26" x="4278.63" y="279.292" width="221.684" height="259.208" filterUnits="userSpaceOnUse">
      <feOffset dx="2" dy="5" input="SourceAlpha"/>
      <feGaussianBlur stdDeviation="12.5" result="blur"/>
      <feFlood flood-opacity="0.102"/>
      <feComposite operator="in" in2="blur"/>
      <feComposite in="SourceGraphic"/>
    </filter>
    <filter id="Ellipse_1" x="4413.438" y="293" width="73.433" height="73.433" filterUnits="userSpaceOnUse">
      <feOffset dy="3" input="SourceAlpha"/>
      <feGaussianBlur stdDeviation="3" result="blur-2"/>
      <feFlood flood-opacity="0.031"/>
      <feComposite operator="in" in2="blur-2"/>
      <feComposite in="SourceGraphic"/>
    </filter>
  </defs>
  <g id="Groupe_11" data-name="Groupe 11" transform="translate(3994.13 17)">
    <g class="cls-7" transform="matrix(1, 0, 0, 1, -3994.13, -17)">
      <rect id="Rectangle_26-2" data-name="Rectangle 26" class="cls-1" width="146.684" height="184.208" rx="3" transform="translate(4314.13 311.79)"/>
    </g>
    <rect id="Rectangle_29" data-name="Rectangle 29" class="cls-2" width="109.16" height="23.026" rx="3" transform="translate(338.762 442.329)"/>
    <rect id="Rectangle_30" data-name="Rectangle 30" class="cls-2" width="109.16" height="23.026" rx="3" transform="translate(338.762 403.952)"/>
    <rect id="Rectangle_31" data-name="Rectangle 31" class="cls-2" width="109.16" height="23.026" rx="3" transform="translate(338.762 364.723)"/>
    <rect id="Rectangle_32" data-name="Rectangle 32" class="cls-3" width="109.16" height="23.026" rx="3" transform="translate(338.762 326.346)"/>
    <g class="cls-6" transform="matrix(1, 0, 0, 1, -3994.13, -17)">
      <circle id="Ellipse_1-2" data-name="Ellipse 1" class="cls-4" cx="27.716" cy="27.716" r="27.716" transform="translate(4422.44 299)"/>
    </g>
    <rect id="Rectangle_27" data-name="Rectangle 27" class="cls-1" width="16.203" height="4.264" rx="2.132" transform="matrix(0.695, 0.719, -0.719, 0.695, 444.254, 307.524)"/>
    <rect id="Rectangle_28" data-name="Rectangle 28" class="cls-1" width="28.996" height="4.264" rx="2.132" transform="translate(473.158 301.567) rotate(135)"/>
    <rect id="Rectangle_33" data-name="Rectangle 33" class="cls-5" width="47.758" height="5.97" rx="2.985" transform="translate(338.762 317.818)"/>
    <rect id="Rectangle_34" data-name="Rectangle 34" class="cls-5" width="71.636" height="5.97" rx="2.985" transform="translate(338.762 356.195)"/>
    <rect id="Rectangle_35" data-name="Rectangle 35" class="cls-5" width="65.667" height="5.97" rx="2.985" transform="translate(338.762 394.571)"/>
    <rect id="Rectangle_36" data-name="Rectangle 36" class="cls-5" width="80.165" height="5.97" rx="2.985" transform="translate(338.762 433.801)"/>
  </g>
</svg>
